<svg width="101" height="118" viewBox="0 0 101 118" fill="none" xmlns="http://www.w3.org/2000/svg">
<path d="M42.9606 58.0392L44.637 56.9485L44.0454 56.0392H42.9606V58.0392ZM52.9871 73.4501L51.3107 74.5408L53.1012 77.2929L54.7253 74.4394L52.9871 73.4501ZM61.7582 58.0392V56.0392H60.5952L60.02 57.0499L61.7582 58.0392ZM4 7C4 5.34315 5.34315 4 7 4V0C3.13401 0 0 3.13401 0 7H4ZM4 53.0392V7H0V53.0392H4ZM7 56.0392C5.34315 56.0392 4 54.6961 4 53.0392H0C0 56.9052 3.13401 60.0392 7 60.0392V56.0392ZM42.9606 56.0392H7V60.0392H42.9606V56.0392ZM41.2842 59.1299L51.3107 74.5408L54.6635 72.3594L44.637 56.9485L41.2842 59.1299ZM54.7253 74.4394L63.4964 59.0285L60.02 57.0499L51.2489 72.4608L54.7253 74.4394ZM94 56.0392H61.7582V60.0392H94V56.0392ZM97 53.0392C97 54.6961 95.6569 56.0392 94 56.0392V60.0392C97.866 60.0392 101 56.9052 101 53.0392H97ZM97 7V53.0392H101V7H97ZM94 4C95.6569 4 97 5.34315 97 7H101C101 3.13401 97.866 0 94 0V4ZM7 4H94V0H7V4Z" fill="url(#paint0_linear)"/>
<path d="M27.5604 88.0253C31.8042 88.0253 34.4902 89.9198 35.6185 93.7089C37.3025 90.9976 39.5339 89.2293 42.3125 88.4042C43.2556 88.1347 44.4428 88 45.8742 88C47.3056 88 48.6865 88.3536 50.0169 89.0609C51.3641 89.7682 52.3577 90.6944 52.9977 91.8396C53.6544 92.9679 54.067 94.2141 54.2354 95.5781C54.4207 96.9422 54.5133 98.4073 54.5133 99.9734V115.483C54.5133 115.955 54.3617 116.351 54.0586 116.671C53.7555 116.991 53.3092 117.151 52.7198 117.151H50.2443C49.6043 117.151 49.1328 116.991 48.8297 116.671C48.5266 116.351 48.375 115.955 48.375 115.483V99.7461C48.375 97.5737 47.9961 95.957 47.2383 94.8961C46.4973 93.8352 45.3185 93.3047 43.7018 93.3047C41.8662 93.3047 40.258 94.113 38.8771 95.7297C37.3951 97.4137 36.6542 99.5019 36.6542 101.994V115.483C36.6542 115.955 36.5026 116.351 36.1995 116.671C35.8964 116.991 35.4501 117.151 34.8607 117.151H32.3852C31.7452 117.151 31.2737 116.991 30.9706 116.671C30.6674 116.351 30.5159 115.955 30.5159 115.483V99.7461C30.5159 97.5737 30.137 95.957 29.3792 94.8961C28.6382 93.8352 27.4594 93.3047 25.8427 93.3047C24.0071 93.3047 22.3905 94.113 20.9927 95.7297C19.5276 97.4137 18.7951 99.5019 18.7951 101.994V115.483C18.7951 115.955 18.6519 116.351 18.3656 116.671C18.0793 116.991 17.6415 117.151 17.0521 117.151H14.4503C13.8609 117.151 13.4146 116.991 13.1115 116.671C12.8083 116.351 12.6568 115.955 12.6568 115.483V99.9734C12.6568 96.5885 12.5473 94.2309 12.3284 92.9005C12.1095 91.5533 12 90.745 12 90.4755C12 89.263 12.581 88.6568 13.743 88.6568H15.1323C16.0753 88.6568 16.7153 89.0104 17.0521 89.7177C17.4563 90.5766 17.8436 91.9069 18.2141 93.7089C19.6792 91.0649 21.801 89.3135 24.5797 88.4547C25.5227 88.1684 26.5163 88.0253 27.5604 88.0253Z" fill="url(#paint1_linear)"/>
<path d="M67.876 104.293L67.8508 104.773C67.8508 107.08 68.5833 108.932 70.0484 110.33C71.5809 111.812 73.6607 112.553 76.2878 112.553C78.6791 112.553 80.902 111.837 82.9565 110.406C83.3438 110.137 83.6891 110.002 83.9922 110.002C84.6153 110.002 85.0868 110.313 85.4068 110.936L86.0888 112.351C86.2404 112.688 86.3161 113.05 86.3161 113.437C86.3161 113.825 86.1393 114.229 85.7857 114.65C85.4489 115.054 85.0026 115.424 84.4469 115.761C83.8911 116.098 83.2428 116.393 82.5018 116.645C81.7777 116.898 81.0283 117.108 80.2536 117.277C78.7043 117.614 77.0877 117.782 75.4036 117.782C73.7196 117.782 72.0187 117.462 70.301 116.822C68.6002 116.182 67.1267 115.248 65.8805 114.018C63.2029 111.408 61.8641 107.88 61.8641 103.434C61.8641 95.6371 64.609 90.7871 70.099 88.8841C71.8167 88.2947 73.5765 88 75.3784 88C77.1971 88 78.738 88.1937 80.001 88.581C81.2809 88.9683 82.3839 89.5409 83.3102 90.2987C85.2636 91.8985 86.2404 94.1299 86.2404 96.9927C86.2404 99.805 85.0952 101.952 82.8049 103.434C80.801 104.731 78.157 105.379 74.8732 105.379C72.8523 105.379 70.52 105.017 67.876 104.293ZM80.3042 96.9169C80.3042 94.5088 78.6875 93.3047 75.4542 93.3047C72.3724 93.3047 70.2168 94.433 68.9875 96.6896C68.5497 97.4811 68.2634 98.4578 68.1286 99.6198C69.5769 100.344 71.4209 100.706 73.6607 100.706C78.0897 100.706 80.3042 99.443 80.3042 96.9169Z" fill="url(#paint2_linear)"/>
<path d="M24.39 18.4098H17.2466C16.9036 18.4098 16.6068 18.3057 16.3562 18.0976C16.1187 17.8764 16 17.6097 16 17.2975V15.2485C16 14.9492 16.1187 14.6955 16.3562 14.4874C16.6068 14.2662 16.9036 14.1556 17.2466 14.1556H36.797C37.1399 14.1556 37.3972 14.2662 37.5687 14.4874C37.7534 14.6955 37.8457 14.9557 37.8457 15.268V17.317C37.8457 17.6162 37.7534 17.8764 37.5687 18.0976C37.384 18.3057 37.1202 18.4098 36.7772 18.4098H29.3765V42.8225C29.3765 43.1607 29.2644 43.4534 29.0401 43.7006C28.8291 43.9478 28.5718 44.0714 28.2684 44.0714H25.4783C25.1749 44.0714 24.9177 43.9478 24.7066 43.7006C24.4956 43.4534 24.39 43.1607 24.39 42.8225V18.4098Z" fill="url(#paint3_linear)"/>
<path d="M60.3048 43.0371C60.3048 43.7266 59.9619 44.0714 59.2759 44.0714H57.3565C56.842 44.0714 56.532 43.9738 56.4264 43.7787C56.3209 43.5705 56.2615 43.3884 56.2484 43.2323C56.2352 43.0631 56.2088 42.8615 56.1692 42.6273C56.09 41.9898 55.9779 41.3003 55.8328 40.5588C54.8038 42.4192 53.1878 43.6486 50.9848 44.247C50.2065 44.4552 49.349 44.5593 48.4124 44.5593C47.4758 44.5593 46.5391 44.4031 45.6025 44.0909C44.6659 43.7917 43.8348 43.3429 43.1093 42.7444C41.4735 41.3914 40.6556 39.6156 40.6556 37.4169C40.6556 35.0102 41.5526 33.1693 43.3467 31.8943C44.8242 30.8666 46.7238 30.3527 49.0456 30.3527C51.3674 30.3527 53.3329 31.0227 54.9424 32.3627C54.9819 31.9204 55.0017 31.3674 55.0017 30.7039C55.0017 30.0405 54.8698 29.377 54.606 28.7135C54.3421 28.05 53.9662 27.4971 53.4781 27.0547C52.4755 26.1831 51.0771 25.7473 49.2831 25.7473C47.6736 25.7473 46.0379 26.1831 44.3757 27.0547C44.0591 27.2239 43.782 27.3084 43.5446 27.3084C43.1884 27.3084 42.8454 26.9637 42.5156 26.2742C42.1594 25.5716 41.9814 25.0643 41.9814 24.752C41.9814 24.1796 42.4167 23.6267 43.2874 23.0933C44.9495 22.0785 47.1724 21.5712 49.9558 21.5712C52.4887 21.5712 54.5862 22.2542 56.2484 23.6202C58.2139 25.2594 59.1967 27.5751 59.1967 30.5673C59.1967 31.8943 58.9791 33.5661 58.5437 35.5826C59.665 38.7309 60.2521 41.2158 60.3048 43.0371ZM47.047 34.763C46.5062 35.1533 46.117 35.5436 45.8796 35.9338C45.6553 36.3241 45.5432 36.786 45.5432 37.3194C45.5432 37.8398 45.6355 38.3081 45.8202 38.7244C46.0181 39.1277 46.2885 39.466 46.6315 39.7392C47.357 40.2986 48.1683 40.5783 49.0654 40.5783C49.9756 40.5783 50.721 40.4742 51.3014 40.2661C51.8818 40.0579 52.3831 39.7912 52.8053 39.466C53.7155 38.7634 54.1706 38.0219 54.1706 37.2413C54.0915 36.2656 53.544 35.498 52.5282 34.9386C51.618 34.4182 50.5429 34.158 49.3028 34.158C48.3398 34.158 47.5879 34.3597 47.047 34.763Z" fill="url(#paint4_linear)"/>
<path d="M71.4652 37.9833C72.7052 37.3849 74.0178 37.0857 75.4029 37.0857C76.8013 37.0857 78.0413 37.2158 79.123 37.476C80.218 37.7231 81.2007 38.1199 82.0714 38.6663C84.0238 39.8893 85 41.6 85 43.7987C85 46.0884 83.8919 47.9292 81.6757 49.3213C79.7101 50.5442 77.3487 51.1556 74.5916 51.1556C71.7818 51.1556 69.4402 50.5572 67.567 49.3603C65.5486 48.0593 64.5394 46.29 64.5394 44.0524C64.5394 41.3333 65.9971 38.7054 68.9125 36.1685C70.047 35.1928 71.3003 34.3146 72.6722 33.534C70.5219 33.3389 68.6883 32.5908 67.1712 31.2899C65.4695 29.8198 64.6186 27.9919 64.6186 25.8063C64.6186 23.2954 65.575 21.2594 67.4878 19.6982C69.2423 18.2802 71.3332 17.5712 73.7605 17.5712C76.3725 17.5712 78.4239 18.2672 79.9145 19.6592C80.3763 20.0885 80.7456 20.5764 81.0227 21.1228C81.0227 19.9259 80.8643 18.69 80.5477 17.415C80.2443 16.1271 80.0926 15.3595 80.0926 15.1123C80.0926 14.8651 80.1388 14.67 80.2311 14.5269C80.3367 14.3708 80.4554 14.2537 80.5873 14.1756C80.7852 14.0585 81.0095 14 81.2601 14H82.9619C84.0568 14 84.6042 15.5026 84.6042 18.5079C84.6042 20.9146 84.1161 23.1328 83.1399 25.1623C83.1663 25.4485 83.1795 25.8258 83.1795 26.2941C83.1795 26.7625 83.074 27.3089 82.8629 27.9334C82.6518 28.5578 82.3682 29.1433 82.012 29.6897C81.6691 30.2231 81.2667 30.7174 80.805 31.1728C80.3565 31.6281 79.875 32.0509 79.3605 32.4412C78.8592 32.8315 78.3513 33.1893 77.8368 33.5145C74.9478 35.3229 73.2197 36.4547 72.6524 36.91C72.0852 37.3524 71.6894 37.7101 71.4652 37.9833ZM70.5549 28.9286C71.0034 29.3059 71.5245 29.5986 72.1182 29.8068C72.725 30.0019 73.3648 30.0995 74.0376 30.0995C74.7235 30.0995 75.3502 30.0019 75.9174 29.8068C76.4847 29.5986 76.9859 29.2994 77.4213 28.9091C78.3447 28.0895 78.8064 27.0357 78.8064 25.7477C78.8064 24.4338 78.2919 23.3995 77.263 22.6449C76.3527 21.9814 75.2314 21.6497 73.8991 21.6497C71.7884 21.6497 70.3307 22.4238 69.526 23.9719C69.2621 24.4793 69.1302 25.0712 69.1302 25.7477C69.1302 26.4112 69.2555 27.0097 69.5062 27.5431C69.7568 28.0765 70.1064 28.5383 70.5549 28.9286ZM69.6051 41.5935C69.117 42.1399 68.873 42.7449 68.873 43.4084C68.873 44.0719 69.0379 44.6378 69.3676 45.1061C69.6974 45.5745 70.1328 45.9648 70.6736 46.277C71.7158 46.8624 73.0218 47.1552 74.5916 47.1552C77.0717 47.1552 78.7998 46.5502 79.776 45.3403C80.0926 44.937 80.2509 44.4296 80.2509 43.8182C80.2509 43.2067 80.0531 42.6863 79.6573 42.257C79.2747 41.8277 78.7932 41.496 78.2128 41.2618C77.2498 40.8715 75.9966 40.6763 74.4531 40.6763C72.0786 40.6763 70.4626 40.9821 69.6051 41.5935Z" fill="url(#paint5_linear)"/>
<defs>
<linearGradient id="paint0_linear" x1="2" y1="2" x2="70.2365" y2="94.6373" gradientUnits="userSpaceOnUse">
<stop stop-color="#FD6E6A"/>
<stop offset="1" stop-color="#FFC600"/>
</linearGradient>
<linearGradient id="paint1_linear" x1="12" y1="88" x2="32.5671" y2="139.322" gradientUnits="userSpaceOnUse">
<stop stop-color="#FD6E6A"/>
<stop offset="1" stop-color="#FFC600"/>
</linearGradient>
<linearGradient id="paint2_linear" x1="12" y1="88" x2="32.5671" y2="139.322" gradientUnits="userSpaceOnUse">
<stop stop-color="#FD6E6A"/>
<stop offset="1" stop-color="#FFC600"/>
</linearGradient>
<linearGradient id="paint3_linear" x1="16" y1="14" x2="47.0207" y2="71.607" gradientUnits="userSpaceOnUse">
<stop stop-color="#FD6E6A"/>
<stop offset="1" stop-color="#FFC600"/>
</linearGradient>
<linearGradient id="paint4_linear" x1="16" y1="14" x2="47.0207" y2="71.607" gradientUnits="userSpaceOnUse">
<stop stop-color="#FD6E6A"/>
<stop offset="1" stop-color="#FFC600"/>
</linearGradient>
<linearGradient id="paint5_linear" x1="16" y1="14" x2="47.0207" y2="71.607" gradientUnits="userSpaceOnUse">
<stop stop-color="#FD6E6A"/>
<stop offset="1" stop-color="#FFC600"/>
</linearGradient>
</defs>
</svg>
